<?xml version="1.0" encoding="UTF-8"?>
<svg id="Capa_2" data-name="Capa 2" xmlns="http://www.w3.org/2000/svg" viewBox="0 0 11.84 17">
  <defs>
    <style>
      .cls-1 {
        fill: #fff;
      }
    </style>
  </defs>
  <g id="Objects">
    <path class="cls-1" d="m11.79,5.1C11.4,2.19,8.87,0,5.86,0c-.28,0-.61.03-.93.08C.73.83-1.24,5.46.83,8.93c1.25,2.11,2.57,4.17,3.89,6.24.37.58.75,1.17,1.13,1.75.07.11.11.11.17,0,.08-.14.17-.26.25-.4,1.58-2.46,3.16-4.92,4.67-7.43.74-1.24,1.04-2.55.85-3.98Zm-5.86,3.77c-1.61,0-2.94-1.32-2.94-2.94,0-1.63,1.31-2.95,2.95-2.95,1.62,0,2.94,1.31,2.94,2.92,0,1.64-1.31,2.96-2.95,2.97Z"/>
  </g>
</svg>