<?xml version="1.0" encoding="UTF-8"?>
<svg id="Capa_2" data-name="Capa 2" xmlns="http://www.w3.org/2000/svg" viewBox="0 0 18.48 18.85">
  <defs>
    <style>
      .cls-1 {
        fill: #00822e;
      }
    </style>
  </defs>
  <g id="Objects">
    <g>
      <path class="cls-1" d="m11.05,17.2c-.63-.05-1.35-.2-2.07-.3-1.01-.15-2.01-.32-3.01-.47-.2-.03-.36-.11-.5-.25-.89-.89-1.79-1.79-2.69-2.67-.18-.17-.17-.3,0-.47.4-.41.8-.83,1.19-1.26.86-.94,1.93-1.29,3.17-1.08,1.49.25,2.96.55,4.43.88.6.13.91.58.8,1.12-.1.51-.57.8-1.17.7-1.35-.23-2.7-.47-4.04-.71-.13-.02-.25-.05-.38-.06-.27-.03-.46.11-.5.33-.04.22.11.43.36.48.29.06.58.1.86.15,1.21.21,2.42.43,3.64.63.72.12,1.32-.1,1.75-.69.43-.59.46-1.23.12-1.87-.09-.16-.07-.25.07-.37.93-.75,1.86-1.51,2.79-2.25.65-.51,1.62-.42,2.18.2.56.61.55,1.62-.04,2.21-1.65,1.66-3.31,3.31-4.97,4.96-.52.52-1.16.78-2.01.78Z"/>
      <path class="cls-1" d="m15.57,2.37c.15-.17.3-.33.45-.49.03-.04.07-.07.1-.11,0,0-.01-.01-.02-.02-.09-.09-.18-.18-.27-.27-.42-.42-.83-.84-1.25-1.27-.02-.02-.03-.02-.05,0-.17.07-.34.14-.51.2-.15.05-.3.09-.45.11-.11.01-.22,0-.33,0-.22-.03-.43-.09-.63-.17-.2-.07-.4-.15-.6-.22-.21-.07-.43-.12-.65-.12-.23,0-.47,0-.7.06-.23.06-.45.13-.66.22-.2.08-.4.15-.61.2-.15.03-.3.06-.46.04-.13-.01-.25-.04-.37-.07-.22-.07-.43-.16-.65-.25-.02,0-.03,0-.05.01-.47.48-.94.95-1.41,1.43-.04.04-.08.08-.12.12,0,0,.01.01.02.02.17.19.34.37.51.56.26.29.41.62.44,1.01.01.14,0,.27,0,.41-.01.15-.04.31-.08.46-.07.28-.16.56-.27.82-.13.3-.24.61-.32.93-.05.23-.1.47-.1.71,0,.11,0,.22,0,.33,0,.11.02.22.04.34.05.29.16.55.34.78.24.32.55.56.9.74.22.11.45.19.68.25.21.06.42.09.63.12.23.03.45.07.68.11.24.05.47.13.67.28.16.12.31.24.46.36.1.08.2.16.29.25.02-.02.04-.03.06-.05.2-.16.4-.33.6-.49.18-.14.38-.25.6-.31.26-.07.53-.11.79-.15.24-.03.47-.07.7-.13.36-.1.7-.24,1.01-.45.25-.17.46-.38.63-.63.2-.3.29-.64.31-.99.02-.23,0-.47-.03-.7-.04-.28-.11-.55-.2-.82-.06-.18-.14-.36-.21-.54-.15-.37-.27-.75-.32-1.15-.02-.19-.03-.39,0-.58.05-.34.19-.64.41-.89Z"/>
      <path class="cls-1" d="m5.03,17.24c0,.22-.08.4-.23.56-.28.28-.55.57-.84.84-.32.3-.75.29-1.06-.02-.87-.86-1.74-1.72-2.6-2.58-.4-.4-.39-.82,0-1.22.25-.25.49-.5.75-.75.34-.33.77-.33,1.1,0,.88.87,1.76,1.75,2.63,2.62.15.15.25.33.25.55Z"/>
    </g>
  </g>
</svg>