<?xml version="1.0" encoding="UTF-8"?>
<svg id="Capa_2" data-name="Capa 2" xmlns="http://www.w3.org/2000/svg" viewBox="0 0 15.75 15.88">
  <defs>
    <style>
      .cls-1 {
        fill: #fff;
      }
    </style>
  </defs>
  <g id="Objects">
    <path class="cls-1" d="m9.7,15.88c-.66,0-1.59,0-2.54-.04-2.4-.09-3.39-.28-3.84-.5-.11.03-.22.05-.33.05h-1.92c-.59,0-1.07-.48-1.07-1.07v-7.12c0-.59.48-1.07,1.07-1.07h1.92c.22,0,.42.07.6.18,1.37-.61,2.15-1.33,2.3-2.15.1-.53.12-1.05.13-1.55.03-1.11.07-2.36,1.41-2.58.66-.11,1.27.09,1.72.56.91.94,1.14,2.89.66,5.65h4.48c1.06,0,1.35.55,1.41,1.01h0c.08.65.08,1.52-.33,2.01-.06.08-.14.14-.22.2.02.59-.03,1.65-.51,2.18-.08.09-.17.16-.27.22.01.51-.04,1.27-.45,1.67-.07.07-.14.12-.22.16,0,.35-.08.83-.42,1.26-.51.64-1.4.95-2.66.92-.07,0-.42,0-.93,0Zm-5.95-1.46c.53.33,3.96.49,6.87.44,0,0,.01,0,.02,0,.91.02,1.55-.16,1.85-.53.31-.38.19-.9.19-.91-.04-.16,0-.33.11-.46.11-.12.27-.19.44-.17.12-.14.17-.74.12-1.25-.02-.14.03-.29.12-.39.1-.11.23-.17.38-.17.02,0,.03,0,.06-.03.25-.27.29-1.23.23-1.79-.01-.14.03-.27.12-.37.09-.1.21-.17.35-.18.08-.08.19-.51.1-1.25,0-.03,0-.05,0-.06-.02-.01-.12-.06-.39-.06h-5.09c-.15,0-.29-.07-.39-.18-.1-.12-.13-.27-.1-.42.76-3.78.05-5-.29-5.35-.22-.23-.5-.32-.83-.27-.46.08-.53.4-.57,1.62-.02.52-.03,1.1-.15,1.71-.23,1.23-1.31,2.25-3.2,3.02h-.02c-.23.1-.5.01-.62-.2,0,0-.02-.03-.05-.03h-1.92s-.06.03-.06.06v7.12s.03.06.06.06h1.92s.02,0,.04-.02c.11-.09.25-.14.4-.12.13.02.24.08.32.18Z"/>
  </g>
</svg>