<?xml version="1.0" encoding="UTF-8"?>
<svg id="Capa_2" data-name="Capa 2" xmlns="http://www.w3.org/2000/svg" viewBox="0 0 19.62 19.65">
  <defs>
    <style>
      .cls-1 {
        fill: #00822e;
      }
    </style>
  </defs>
  <g id="Objects">
    <path class="cls-1" d="m19.58,4.22c-.05-.36-.13-.69-.25-.99-.09-.25-.31-.4-.56-.4-.14,0-.28.05-.4.15-.04.03-.08.07-.13.13l-1.71,1.72c-.31.31-.63.63-.98.97-.31-.1-.62-.17-.93-.25l-.41-.1c-.12-.46-.24-.92-.37-1.35l2.78-2.78c.15-.16.21-.34.18-.53-.03-.18-.15-.34-.34-.44-.2-.11-.41-.15-.63-.2-.37-.08-.74-.13-1.11-.13-.19,0-.38.01-.57.03-.9.11-1.69.43-2.37.96-1.34,1.04-1.99,2.46-1.95,4.22.02.65-.16,1.24-.53,1.78-.22.31-.49.57-.77.85l-.27.26L.69,15.68c-.56.56-.78,1.23-.65,2,.15.88.66,1.51,1.48,1.81.28.1.56.16.84.16.53,0,1.03-.2,1.48-.58.16-.14.31-.29.47-.45l7.84-7.85c.29-.29.53-.48.79-.61.45-.24.91-.36,1.35-.36.06,0,.11,0,.18,0h.53s.08,0,.17-.02c.91-.09,1.74-.4,2.45-.92.86-.62,1.45-1.45,1.78-2.46.23-.72.29-1.45.19-2.17Zm-9.41,6.8l-6.57,6.58s-.41.42-.52.52c-.21.2-.46.3-.73.3-.09,0-.18-.01-.28-.03-.4-.09-.67-.34-.8-.74-.13-.41-.06-.77.22-1.06.52-.54,1.06-1.07,1.59-1.6l6.4-6.4c.28-.27.56-.55.8-.89.51-.73.77-1.52.77-2.36,0-.62.03-1.13.2-1.63.37-1.08,1.1-1.85,2.17-2.27.41-.16.83-.24,1.27-.24.09,0,.19,0,.29.01l-.82.83c-.44.44-.88.89-1.33,1.32-.23.22-.3.48-.21.79.18.63.34,1.25.51,1.88.08.32.34.42.52.47l1.85.49c.08.02.15.03.22.03.19,0,.37-.08.51-.23.28-.29.56-.57.84-.85l1.33-1.32c.03.53-.02.96-.15,1.35-.4,1.21-1.19,2.01-2.42,2.42-.44.15-.9.15-1.4.15-1.19,0-2.21.41-3.03,1.21-.41.41-.82.82-1.23,1.23Z"/>
  </g>
</svg>