<?xml version="1.0" encoding="UTF-8"?>
<svg id="Capa_2" data-name="Capa 2" xmlns="http://www.w3.org/2000/svg" viewBox="0 0 24.52 19.87">
  <defs>
    <style>
      .cls-1 {
        fill: #00822e;
      }
    </style>
  </defs>
  <g id="Objects">
    <g>
      <g>
        <path class="cls-1" d="m2.15,19.87C.91,19.87,0,18.98,0,17.74,0,12.53,0,7.32,0,2.11,0,.89.9,0,2.12,0h4.62c.53,0,.93.23,1.19.68l.15.26c.1.16.19.32.27.49.06.12.11.16.27.16,2.23,0,8.35,0,8.35,0h5.39c1.24,0,2.14.9,2.15,2.13,0,.59,0,1.17,0,1.76v12.2c0,1.31-.88,2.2-2.2,2.2h-10.06s-10.11,0-10.11,0ZM1.12,5.8s0,.03,0,.1c0,3,0,6.01,0,9.01v2.74c0,.71.38,1.08,1.09,1.08h20.05c.78,0,1.12-.35,1.12-1.12,0,0,0-11.8,0-11.84-.01.02-.08.02-.15.02H7.53c-2.1,0-4.19,0-6.29,0-.07,0-.1,0-.11,0ZM2.14,1.14c-.61,0-1.01.4-1.01,1.01,0,.69,0,2.39,0,2.39,0,.05,0,.11,0,.15.02-.02.08-.02.14-.02h22.08c.03-.22.03-.42.03-.61v-.29c0-.66-.38-1.05-1.04-1.05h-6.92c-2.41,0-4.82,0-7.23,0-.2,0-.44-.04-.6-.35-.1-.19-.21-.38-.32-.56-.1-.17-.2-.33-.29-.5-.07-.13-.14-.16-.29-.16h-3.49s-1.06,0-1.06,0Z"/>
        <path class="cls-1" d="m12.26,19.67c-3.37,0-6.74,0-10.11,0-1.13,0-1.95-.8-1.95-1.94,0-5.21,0-10.42,0-15.63,0-1.1.82-1.91,1.92-1.91,1.54,0,3.08,0,4.62,0,.45,0,.79.19,1.01.58.14.25.3.48.42.73.1.2.23.27.46.27,3.34,0,6.67,0,10.01,0,1.24,0,2.48,0,3.72,0,1.13,0,1.94.8,1.95,1.94,0,.86,0,1.71,0,2.57,0,3.8,0,7.6,0,11.39,0,1.2-.8,2-2,2-3.35,0-6.71,0-10.06,0Zm-.01-14.08c-3.67,0-7.34,0-11.01,0-.24,0-.32.06-.32.31,0,3.92,0,7.83,0,11.75,0,.82.47,1.29,1.29,1.29,6.68,0,13.36,0,20.05,0,.88,0,1.32-.44,1.32-1.33,0-3.89,0-7.78,0-11.67,0-.34,0-.34-.35-.34-3.66,0-7.32,0-10.99,0Zm0-.73c2.82,0,5.65,0,8.47,0,.87,0,1.75,0,2.62,0,.17,0,.25-.04.24-.23-.01-.29,0-.58,0-.87,0-.78-.47-1.25-1.25-1.25-.7,0-1.4,0-2.11,0-4.01,0-8.03,0-12.04,0-.2,0-.33-.05-.42-.24-.19-.36-.42-.71-.61-1.07-.11-.2-.25-.27-.47-.27-1.51,0-3.03,0-4.54,0-.72,0-1.21.49-1.21,1.21,0,.8,0,1.59,0,2.39,0,.33,0,.33.34.33,3.66,0,7.33,0,10.99,0Z"/>
      </g>
      <g>
        <path class="cls-1" d="m6.72,17.58l-.12-.2v.2s0,0,0,0c-.18,0-.3-.12-.3-.28v-.21c0-.23.11-.35.28-.35h2.02c.12-.38.39-.65.79-.78.17-.06.34-.06.51-.06h1.55c0-2.05,0-4.1,0-6.14,0-.15-.02-.19-.08-.24-.16-.13-.28-.33-.34-.55l-1.56.03h-.92l.5,1.28c.05.13.11.25.15.38.05.17.04.35.04.5v.35s-.27.07-.27.07h-.28c-.16,0-.27-.11-.28-.26v-.14c.03-.22-.06-.43-.15-.66l-.32-.79-.44,1.13c-.02.06-.02.14-.02.23v.12c0,.13,0,.37-.33.37l-.15-.2v.2s0,0,0,0c-.32,0-.35-.17-.36-.33v-.12c-.03-.33.08-.6.18-.86l.71-1.79c.05-.14.18-.31.48-.31h3.06c.13-.52.62-.88,1.2-.88.09,0,.19,0,.28.03.44.09.77.36.94.8l.04.09,1.49-.04h1.45c.35.01.48.1.58.37l.13.34c.21.53.41,1.05.63,1.57.11.27.11.53.11.78,0,.23-.12.35-.28.35h-.26c-.16,0-.27-.1-.29-.25.03-.35-.07-.6-.18-.85l-.29-.74-.27.7c-.05.14-.1.27-.16.4-.02.06-.04.11-.04.18v.19c0,.24-.06.38-.36.38l-.11-.2v.2s0,0,0,0c-.34,0-.35-.22-.36-.39-.03-.38.08-.65.18-.91l.5-1.27h-2.51c-.03.21-.18.44-.4.62l.02,4.64s0,1.62,0,1.65c.02-.01.06-.01.09-.01h1.56c.45,0,.8.19,1.06.56.07.11.12.2.14.3l.97-.02s.97,0,.97,0c.08,0,.18,0,.26.09.09.09.09.21.08.25,0,.28,0,.5-.36.5H6.72Zm5.53-9.46c-.25,0-.45.21-.44.47,0,.25.2.45.46.45.27,0,.47-.21.47-.48,0-.25-.21-.45-.47-.45v-.2.2Z"/>
        <path class="cls-1" d="m12.26,17.38c-1.85,0-3.69,0-5.54,0-.04,0-.08,0-.12,0-.06,0-.1-.02-.1-.09,0-.09,0-.19,0-.28,0-.05.03-.08.08-.08.03,0,.06,0,.1,0,.64,0,1.28,0,1.92,0,.1,0,.14-.03.18-.13.12-.33.34-.55.68-.66.15-.05.29-.05.44-.05.54,0,1.08,0,1.62,0,.09,0,.13-.02.13-.13,0-2.07,0-4.14,0-6.21,0-.16-.02-.28-.15-.39-.14-.11-.23-.27-.27-.45-.02-.08-.07-.12-.16-.12-.88,0-1.76,0-2.65,0-.13,0-.14.01-.1.14.16.42.32.83.49,1.24.07.18.15.35.21.54.06.19.02.4.02.6,0,.04-.03.06-.07.06-.09,0-.19,0-.28,0-.05,0-.08-.03-.09-.08,0-.03,0-.06,0-.1.04-.28-.07-.52-.17-.77-.12-.3-.24-.6-.36-.9-.03-.07-.05-.14-.08-.21-.01-.03-.03-.05-.06-.05-.03,0-.04.03-.05.05-.19.49-.39.97-.58,1.46-.05.14-.03.28-.03.42,0,.16,0,.17-.17.17-.32,0-.25.05-.28-.27-.03-.34.12-.62.23-.91.18-.48.37-.95.56-1.42.03-.08.07-.15.09-.23.05-.14.16-.18.29-.18.9,0,1.79,0,2.69,0,.12,0,.24,0,.36,0,.08,0,.13-.03.16-.11.17-.54.7-.87,1.29-.75.38.08.65.32.8.68.07.18.07.18.26.18.97,0,1.94,0,2.9,0,.02,0,.04,0,.06,0,.2,0,.26.05.33.24.25.64.5,1.28.76,1.92.11.26.09.52.09.78,0,.05-.03.07-.08.07-.09,0-.17,0-.26,0-.05,0-.09-.03-.09-.08,0-.01,0-.02,0-.03.05-.37-.12-.69-.25-1.02-.12-.3-.24-.61-.36-.92-.01-.03-.01-.06-.05-.06-.03,0-.05.02-.06.05-.11.29-.23.58-.34.88-.07.19-.14.37-.22.56-.04.09-.05.17-.05.26,0,.06,0,.12,0,.18,0,.18,0,.19-.19.19-.25,0-.23.05-.26-.26-.03-.33.11-.6.22-.89.17-.44.34-.87.51-1.3.04-.1.03-.12-.09-.12-.89,0-1.78,0-2.67,0-.06,0-.11.01-.13.08-.07.23-.2.43-.4.58-.04.03-.05.08-.05.13,0,2.07,0,4.14,0,6.21q0,.29.29.29c.52,0,1.04,0,1.56,0,.38,0,.68.16.9.47.05.07.09.15.11.23.03.11.09.14.19.14.65,0,1.29,0,1.94,0,.11,0,.15.03.14.14,0,.35.03.31-.3.31-1.83,0-3.65,0-5.48,0Zm-.18-4.48c0,1,0,1.99,0,2.99q0,.21.22.21t.15-.16c0-2.01,0-4.03,0-6.04,0-.23.04-.21-.21-.21-.16,0-.16,0-.16.17,0,1.01,0,2.03,0,3.04Zm.19,4.04h0c.97,0,1.95,0,2.92,0,.04,0,.09.01.11-.03.02-.04-.01-.08-.04-.11-.14-.19-.33-.26-.57-.26-1.32,0-2.65,0-3.97,0-.32,0-.64,0-.96,0-.2,0-.35.09-.48.24-.03.04-.07.07-.04.12.02.04.08.03.12.03.97,0,1.94,0,2.91,0Zm0-7.69c.37,0,.66-.3.66-.68,0-.36-.31-.65-.68-.65-.36,0-.65.3-.64.67,0,.37.3.66.66.65Z"/>
        <path class="cls-1" d="m16.61,13.6c-.64,0-1.21-.35-1.5-.92-.12-.24-.18-.51-.19-.85,0-.07,0-.18.08-.26.08-.09.2-.09.27-.09h2.64c.25,0,.35.09.36.35.02.53-.15.97-.51,1.31-.31.3-.73.46-1.16.46Zm-.73-1.29c.11.19.24.31.41.38.1.04.21.07.32.07h0c.31,0,.6-.18.74-.45h-1.47Z"/>
        <path class="cls-1" d="m16.61,11.68c.44,0,.87,0,1.31,0,.15,0,.15.01.16.16.02.45-.12.85-.45,1.16-.72.69-1.9.48-2.34-.4-.12-.24-.16-.5-.16-.77,0-.13.02-.15.15-.15.45,0,.89,0,1.34,0h0Zm0,.44s0,0,0,0c-.28,0-.56,0-.85,0-.16,0-.19.05-.12.2.12.26.29.46.56.57.54.24,1.2-.06,1.37-.62.04-.12.02-.14-.1-.14-.29,0-.58,0-.87,0Z"/>
        <path class="cls-1" d="m7.93,13.6c-.66,0-1.24-.37-1.52-.96-.12-.26-.18-.55-.16-.88,0-.14.09-.29.32-.29h2.66c.34,0,.37.17.37.36.01.51-.16.94-.5,1.28-.31.31-.73.48-1.17.48Zm-.74-1.29c.13.25.33.39.63.44.04,0,.07,0,.11,0,.3,0,.6-.19.74-.45h-1.47Z"/>
        <path class="cls-1" d="m7.93,11.68c.44,0,.87,0,1.31,0,.17,0,.17,0,.17.17.01.44-.13.82-.44,1.13-.72.71-1.93.49-2.37-.42-.12-.24-.16-.51-.14-.78,0-.08.05-.1.12-.1.28,0,.56,0,.83,0,.17,0,.35,0,.52,0h0Zm.02.44h0c-.3,0-.59,0-.89,0-.12,0-.14.03-.1.13.14.4.42.63.84.7.46.08.99-.25,1.12-.7.03-.11.01-.14-.11-.14-.29,0-.57,0-.86,0Z"/>
      </g>
    </g>
  </g>
</svg>