<?xml version="1.0" encoding="UTF-8"?>
<svg id="Capa_2" data-name="Capa 2" xmlns="http://www.w3.org/2000/svg" xmlns:xlink="http://www.w3.org/1999/xlink" viewBox="0 0 136.05 22.84">
  <defs>
    <style>
      .cls-1 {
        fill: #5aa442;
      }

      .cls-2 {
        fill: url(#Degradado_sin_nombre_5-3);
      }

      .cls-3 {
        fill: url(#Degradado_sin_nombre_5-2);
      }

      .cls-4 {
        fill: none;
        stroke: #606060;
        stroke-miterlimit: 10;
        stroke-width: .19px;
      }

      .cls-5 {
        fill: url(#Degradado_sin_nombre_5);
      }

      .cls-6 {
        fill: url(#Degradado_sin_nombre_5-5);
      }

      .cls-7 {
        fill: #606060;
      }

      .cls-8 {
        fill: url(#Degradado_sin_nombre_5-4);
      }
    </style>
    <linearGradient id="Degradado_sin_nombre_5" data-name="Degradado sin nombre 5" x1="-1.9" y1="2.55" x2="24.47" y2="2.37" gradientTransform="translate(7.54 12.49) rotate(-90)" gradientUnits="userSpaceOnUse">
      <stop offset="0" stop-color="#90d077"/>
      <stop offset="1" stop-color="#5aa442"/>
    </linearGradient>
    <linearGradient id="Degradado_sin_nombre_5-2" data-name="Degradado sin nombre 5" x1="-1.79" y1="18.73" x2="24.58" y2="18.54" gradientTransform="translate(-7.37 33.62) rotate(-126.1)" xlink:href="#Degradado_sin_nombre_5"/>
    <linearGradient id="Degradado_sin_nombre_5-3" data-name="Degradado sin nombre 5" x1="-1.79" y1="18.8" x2="24.58" y2="18.62" gradientTransform="translate(-8.86 19.93) rotate(-53.9)" xlink:href="#Degradado_sin_nombre_5"/>
    <linearGradient id="Degradado_sin_nombre_5-4" data-name="Degradado sin nombre 5" x1="-1.85" y1="9.27" x2="24.51" y2="9.09" gradientTransform="translate(-3.31 1.57) rotate(-22.15)" xlink:href="#Degradado_sin_nombre_5"/>
    <linearGradient id="Degradado_sin_nombre_5-5" data-name="Degradado sin nombre 5" x1="-1.85" y1="9.38" x2="24.51" y2="9.2" gradientTransform="translate(30.54 24.47) rotate(-157.85)" xlink:href="#Degradado_sin_nombre_5"/>
  </defs>
  <g id="Objects">
    <g>
      <g>
        <path class="cls-7" d="m23.79,7.37h2.84c1.77,0,3.01,1.11,3.01,3.31v2.35c0,2.18-1.24,3.35-3.01,3.35h-2.84V7.37Zm2.76,8.28c1.37,0,2.34-.82,2.34-2.77v-2.06c0-1.94-.97-2.71-2.34-2.71h-2.01v7.54h2.01Z"/>
        <path class="cls-7" d="m30.72,13.65v-1.75c0-1.77.97-2.81,2.53-2.81,1.15,0,1.9.6,2.21,1.29v-1.19h.69v7.18h-.69v-1.17c-.31.7-1.06,1.3-2.21,1.3-1.58,0-2.53-1.06-2.53-2.85Zm2.72,2.22c1.26,0,1.98-.86,1.98-2.31v-1.66c0-1.38-.75-2.18-1.98-2.18-1.29,0-1.99.84-1.99,2.26v1.58c0,1.47.7,2.31,1.99,2.31Z"/>
        <path class="cls-7" d="m37.6,13.69v-3.86h-.82v-.51c.95,0,1.05-.29,1.05-1.52h.5v1.39h2.02v.64h-2.02v3.78c0,1.94.29,2.27,2.06,2.16v.66c-2.22.24-2.78-.59-2.78-2.75Z"/>
        <path class="cls-7" d="m40.7,13.65v-1.75c0-1.77.97-2.81,2.53-2.81,1.15,0,1.9.6,2.21,1.29v-1.19h.69v7.18h-.69v-1.17c-.31.7-1.06,1.3-2.21,1.3-1.58,0-2.53-1.06-2.53-2.85Zm2.72,2.22c1.26,0,1.98-.86,1.98-2.31v-1.66c0-1.38-.75-2.18-1.98-2.18-1.29,0-1.99.84-1.99,2.26v1.58c0,1.47.7,2.31,1.99,2.31Z"/>
        <path class="cls-7" d="m47.63,7.37h2.72c1.83,0,3,1.12,3,3.14v.26c0,1.49-.78,2.43-1.95,2.75l1.92,2.86h-1.44l-1.66-2.59h-1.33v2.59h-1.25V7.37Zm2.58,5.21c1.07,0,1.9-.54,1.9-1.83v-.31c0-1.4-.82-1.86-1.9-1.86h-1.33v4h1.33Z"/>
        <path class="cls-7" d="m54.18,13.68v-1.74c0-1.75,1-2.85,2.71-2.85s2.69,1.02,2.69,2.78v1.24h-4.21v.8c0,1.02.66,1.58,1.52,1.58s1.51-.55,1.51-1.34v-.11h1.19v.05c0,1.32-1,2.4-2.69,2.4s-2.71-1.1-2.71-2.82Zm4.21-1.43v-.45c0-1.19-.57-1.7-1.51-1.7s-1.52.55-1.52,1.6v.55h3.03Z"/>
        <path class="cls-7" d="m61.24,6.64c.42,0,.75.33.75.75s-.33.75-.75.75-.75-.33-.75-.75.33-.75.75-.75Zm-.6,2.55h1.19v7.18h-1.19v-7.18Z"/>
        <path class="cls-7" d="m63.14,9.2h1.12v1.01c.2-.47.87-1.1,1.95-1.1,1.44,0,2.34,1,2.34,2.78v4.48h-1.2v-4.34c0-1.2-.38-1.93-1.52-1.93s-1.51.63-1.51,1.99v4.28h-1.19v-7.18Z"/>
        <path class="cls-7" d="m69.43,13.91h1.19c0,1.02.63,1.57,1.58,1.57.83,0,1.46-.42,1.46-1.1,0-1.57-4.02-.59-4.02-3.26,0-1.28.93-2.03,2.52-2.03,1.74,0,2.63.86,2.63,2.5h-1.12c0-1.1-.52-1.48-1.51-1.48-.89,0-1.34.37-1.34.98,0,1.74,4.05.68,4.05,3.3,0,1.28-.92,2.11-2.66,2.11s-2.77-.98-2.77-2.59Z"/>
        <path class="cls-7" d="m75.69,13.68v-1.74c0-1.75,1-2.85,2.71-2.85s2.69,1.02,2.69,2.78v1.24h-4.21v.8c0,1.02.66,1.58,1.52,1.58s1.51-.55,1.51-1.34v-.11h1.19v.05c0,1.32-1,2.4-2.69,2.4s-2.71-1.1-2.71-2.82Zm4.21-1.43v-.45c0-1.19-.57-1.7-1.51-1.7s-1.52.55-1.52,1.6v.55h3.03Z"/>
        <path class="cls-7" d="m82.18,9.2h1.12v1.3c.22-.86.98-1.46,2.08-1.39v1.19c-1.33-.06-2.02.6-2.02,1.93v4.15h-1.19v-7.18Z"/>
        <path class="cls-7" d="m85.71,13.68v-1.71c0-1.76,1-2.86,2.71-2.86s2.69,1.05,2.69,2.86v.03h-1.19v-.03c0-1.16-.49-1.75-1.51-1.75s-1.52.56-1.52,1.9v1.57c0,1.05.5,1.71,1.52,1.71s1.51-.6,1.51-1.75v-.04h1.19v.04c0,1.76-.97,2.85-2.69,2.85s-2.71-1.1-2.71-2.82Z"/>
        <path class="cls-7" d="m92.76,6.64c.42,0,.75.33.75.75s-.33.75-.75.75-.75-.33-.75-.75.33-.75.75-.75Zm-.6,2.55h1.19v7.18h-1.19v-7.18Z"/>
        <path class="cls-7" d="m94.47,13.64v-1.7c0-1.71.98-2.82,2.71-2.82s2.69,1.11,2.69,2.82v1.7c0,1.76-1.01,2.86-2.69,2.86s-2.71-1.1-2.71-2.86Zm2.71,1.77c.88,0,1.51-.56,1.51-1.62v-1.99c0-1.03-.61-1.6-1.51-1.6s-1.52.56-1.52,1.6v1.99c0,1.06.6,1.62,1.52,1.62Zm.31-9.14h1.3l-1.26,2.01h-.94l.91-2.01Z"/>
        <path class="cls-7" d="m101.03,9.2h1.12v1.01c.2-.47.87-1.1,1.95-1.1,1.44,0,2.34,1,2.34,2.78v4.48h-1.2v-4.34c0-1.2-.38-1.93-1.52-1.93s-1.51.63-1.51,1.99v4.28h-1.19v-7.18Z"/>
      </g>
      <g>
        <path class="cls-1" d="m47.81,18.09h.96c.64,0,1.12.41,1.12,1.15v.12c0,.74-.48,1.13-1.12,1.13h-.51v.86h-.46v-3.27Zm.94,1.97c.39,0,.69-.21.69-.7v-.12c0-.57-.33-.71-.69-.71h-.48v1.53h.48Z"/>
        <path class="cls-1" d="m50.38,17.84h.44v3.52h-.44v-3.52Z"/>
        <path class="cls-1" d="m51.35,20.38v-.65c0-.67.34-1.02.84-1.02.4,0,.64.23.71.4v-.36h.41v2.61h-.41v-.36c-.07.17-.31.4-.71.4-.52,0-.84-.36-.84-1.02Zm.98.66c.36,0,.55-.25.55-.72v-.55c0-.45-.2-.69-.55-.69s-.55.25-.55.71v.53c0,.47.19.72.55.72Z"/>
        <path class="cls-1" d="m53.99,20.39v-1.27h-.26v-.33c.29,0,.43-.14.43-.56h.27v.52h.57v.37h-.57v1.21c0,.61.02.69.59.66v.39c-.81.08-1.03-.2-1.03-.99Z"/>
        <path class="cls-1" d="m55.33,20.38v-.65c0-.67.34-1.02.84-1.02.4,0,.64.23.71.4v-.36h.41v2.61h-.41v-.36c-.07.17-.31.4-.71.4-.52,0-.84-.36-.84-1.02Zm.98.66c.36,0,.55-.25.55-.72v-.55c0-.45-.2-.69-.55-.69s-.55.25-.55.71v.53c0,.47.19.72.55.72Z"/>
        <path class="cls-1" d="m58.04,19.13h-.28v-.38h.28c0-.72.26-.96.97-.88v.37c-.44-.06-.54.09-.54.51h.53v.38h-.53v2.23h-.44v-2.23Z"/>
        <path class="cls-1" d="m59.22,20.36v-.62c0-.62.36-1.02.98-1.02s.98.4.98,1.02v.62c0,.64-.37,1.04-.98,1.04s-.98-.4-.98-1.04Zm.98.64c.32,0,.55-.2.55-.59v-.72c0-.38-.22-.58-.55-.58s-.55.2-.55.58v.72c0,.38.22.59.55.59Z"/>
        <path class="cls-1" d="m61.72,18.75h.41v.47c.08-.31.36-.53.76-.51v.43c-.48-.02-.73.22-.73.7v1.51h-.43v-2.61Z"/>
        <path class="cls-1" d="m63.35,18.75h.41v.31c.07-.13.25-.34.59-.34.28,0,.52.13.65.42.09-.21.34-.42.7-.42.45,0,.7.34.7.92v1.72h-.44v-1.8c0-.32-.15-.5-.44-.5s-.44.17-.44.48v1.81h-.44v-1.8c0-.34-.16-.5-.44-.5s-.44.17-.44.48v1.81h-.43v-2.61Z"/>
        <path class="cls-1" d="m66.89,20.38v-.65c0-.67.34-1.02.84-1.02.4,0,.64.23.71.4v-.36h.41v2.61h-.41v-.36c-.07.17-.31.4-.71.4-.52,0-.84-.36-.84-1.02Zm.98.66c.36,0,.55-.25.55-.72v-.55c0-.45-.2-.69-.55-.69s-.55.25-.55.71v.53c0,.47.19.72.55.72Z"/>
        <path class="cls-1" d="m70.4,20.38v-.65c0-.65.32-1.01.85-1.01.39,0,.59.18.66.35v-1.2h.46v3.49h-.41v-.36c-.1.19-.27.4-.71.4-.52,0-.85-.36-.85-1.02Zm.99.66c.35,0,.55-.25.55-.72v-.56c0-.45-.2-.69-.55-.69-.37,0-.55.26-.55.71v.53c0,.46.19.72.55.72Z"/>
        <path class="cls-1" d="m72.9,20.38v-.63c0-.64.36-1.03.98-1.03s.98.37.98,1.01v.45h-1.53v.29c0,.37.24.58.55.58s.55-.2.55-.49v-.04h.43v.02c0,.48-.36.87-.98.87s-.98-.4-.98-1.03Zm1.53-.52v-.16c0-.43-.21-.62-.55-.62s-.55.2-.55.58v.2h1.1Z"/>
        <path class="cls-1" d="m76.36,21.57h.42c0,.22.14.44.53.44s.54-.18.54-.53v-.47c-.07.18-.29.4-.69.4-.52,0-.84-.36-.84-1.02v-.65c0-.64.32-1,.8-1,.39,0,.67.18.75.39v-.36h.41v2.63c0,.63-.22.96-.97.96s-.96-.38-.96-.78Zm.95-.51c.34,0,.55-.23.55-.7v-.66c0-.41-.21-.62-.55-.62-.36,0-.55.25-.55.71v.55c0,.47.19.72.55.72Z"/>
        <path class="cls-1" d="m78.83,20.38v-.63c0-.64.36-1.03.98-1.03s.98.37.98,1.01v.45h-1.53v.29c0,.37.24.58.55.58s.55-.2.55-.49v-.04h.43v.02c0,.48-.36.87-.98.87s-.98-.4-.98-1.03Zm1.53-.52v-.16c0-.43-.21-.62-.55-.62s-.55.2-.55.58v.2h1.1Z"/>
        <path class="cls-1" d="m81.17,20.46h.43c0,.37.23.57.58.57.3,0,.53-.15.53-.4,0-.57-1.46-.21-1.46-1.18,0-.46.34-.74.91-.74.63,0,.96.31.96.91h-.41c0-.4-.19-.54-.55-.54-.33,0-.49.13-.49.36,0,.63,1.47.25,1.47,1.2,0,.46-.33.77-.96.77s-1.01-.36-1.01-.94Z"/>
        <path class="cls-1" d="m83.71,20.39v-1.27h-.26v-.33c.29,0,.43-.14.43-.56h.27v.52h.57v.37h-.57v1.21c0,.61.02.69.59.66v.39c-.81.08-1.03-.2-1.03-.99Z"/>
        <path class="cls-1" d="m85.4,17.82c.15,0,.27.12.27.27s-.12.27-.27.27-.27-.12-.27-.27.12-.27.27-.27Zm-.22.93h.43v2.61h-.43v-2.61Z"/>
        <path class="cls-1" d="m86.14,20.36v-.62c0-.62.36-1.02.98-1.02s.98.4.98,1.02v.62c0,.64-.37,1.04-.98,1.04s-.98-.4-.98-1.04Zm.98.64c.32,0,.55-.2.55-.59v-.72c0-.38-.22-.58-.55-.58s-.55.2-.55.58v.72c0,.38.22.59.55.59Zm.11-3.32h.47l-.46.73h-.34l.33-.73Z"/>
        <path class="cls-1" d="m88.64,18.75h.41v.37c.07-.17.32-.4.71-.4.52,0,.85.36.85,1.01v1.63h-.44v-1.58c0-.44-.14-.7-.55-.7s-.55.23-.55.72v1.55h-.43v-2.61Z"/>
        <path class="cls-1" d="m92.39,17.82c.15,0,.27.12.27.27s-.12.27-.27.27-.27-.12-.27-.27.12-.27.27-.27Zm-.22.93h.43v2.61h-.43v-2.61Z"/>
        <path class="cls-1" d="m93.2,18.75h.41v.37c.07-.17.32-.4.71-.4.52,0,.85.36.85,1.01v1.63h-.44v-1.58c0-.44-.14-.7-.55-.7s-.55.23-.55.72v1.55h-.43v-2.61Z"/>
        <path class="cls-1" d="m95.79,20.39v-1.27h-.26v-.33c.29,0,.43-.14.43-.56h.27v.52h.57v.37h-.57v1.21c0,.61.02.69.59.66v.39c-.81.08-1.03-.2-1.03-.99Z"/>
        <path class="cls-1" d="m97.13,20.38v-.63c0-.64.36-1.03.98-1.03s.98.37.98,1.01v.45h-1.53v.29c0,.37.24.58.55.58s.55-.2.55-.49v-.04h.43v.02c0,.48-.36.87-.98.87s-.98-.4-.98-1.03Zm1.53-.52v-.16c0-.43-.21-.62-.55-.62s-.55.2-.55.58v.2h1.1Z"/>
        <path class="cls-1" d="m99.57,21.57h.42c0,.22.14.44.53.44s.54-.18.54-.53v-.47c-.07.18-.29.4-.69.4-.52,0-.84-.36-.84-1.02v-.65c0-.64.32-1,.8-1,.39,0,.67.18.75.39v-.36h.41v2.63c0,.63-.22.96-.97.96s-.96-.38-.96-.78Zm.95-.51c.34,0,.55-.23.55-.7v-.66c0-.41-.21-.62-.55-.62-.36,0-.55.25-.55.71v.55c0,.47.19.72.55.72Z"/>
        <path class="cls-1" d="m102.1,18.75h.41v.47c.08-.31.36-.53.76-.51v.43c-.48-.02-.73.22-.73.7v1.51h-.43v-2.61Z"/>
        <path class="cls-1" d="m103.5,20.38v-.65c0-.67.34-1.02.84-1.02.4,0,.64.23.71.4v-.36h.41v2.61h-.41v-.36c-.07.17-.31.4-.71.4-.52,0-.84-.36-.84-1.02Zm.98.66c.36,0,.55-.25.55-.72v-.55c0-.45-.2-.69-.55-.69s-.55.25-.55.71v.53c0,.47.19.72.55.72Z"/>
        <path class="cls-1" d="m106.06,17.84h.44v3.52h-.44v-3.52Z"/>
      </g>
      <image width="2000" height="2000" transform="translate(117.86 2.84) scale(0)" xlink:href="../../../../../../../../proyects/gendarmería/diseño/Escudo_Gendarmería_de_Chile_2019.png"/>
      <g>
        <rect class="cls-5" x="7.54" y="1.44" width="4.94" height="2.06" rx="1.03" ry="1.03" transform="translate(12.49 -7.54) rotate(90)"/>
        <rect class="cls-3" x="2.39" y="17.65" width="4.94" height="2.06" rx="1.03" ry="1.03" transform="translate(22.82 25.76) rotate(126.1)"/>
        <rect class="cls-2" x="12.7" y="17.65" width="4.94" height="2.06" rx="1.03" ry="1.03" transform="translate(21.32 -4.58) rotate(53.9)"/>
        <rect class="cls-8" x="-.11" y="8.22" width="4.94" height="2.06" rx="1.03" ry="1.03" transform="translate(3.66 -.21) rotate(22.15)"/>
        <rect class="cls-6" x="15.19" y="8.22" width="4.94" height="2.06" rx="1.03" ry="1.03" transform="translate(37.51 11.15) rotate(157.85)"/>
      </g>
      <line class="cls-4" x1="112.55" y1="0" x2="112.55" y2="22.84"/>
    </g>
  </g>
</svg>