<?xml version="1.0" encoding="UTF-8"?>
<svg id="Capa_2" data-name="Capa 2" xmlns="http://www.w3.org/2000/svg" viewBox="0 0 60.89 344.08">
  <defs>
    <style>
      .cls-1 {
        fill: #f3f3f3;
      }
    </style>
  </defs>
  <g id="Background">
    <g>
      <path class="cls-1" d="m3.78,243.19l-1.88-.66-.2-.51-.76.25v-.56l1.06-.51h1.22l.71-.3.91-1.01.3.25-.76,1.12.86,1.52.66-.2.46.76,1.42-.46-.1-.91,1.72.3,1.01,2.38h.76l.56.71.05,1.12-1.67.86-.51,1.42-.46-1.98-1.47,2.08.81.81-.1.56.76.05.05.61.61.3.05.86h-.61l.51.56.15.46h.51l.66.35,1.47-.2.25-1.22.66.91h.86l.15,1.22.56.46s.71-.3.96-.3.25.71.25.71l-1.01.41-1.12-.41-.51-.76-.41.91.81.15-.15.86,1.12,1.27-1.37.1-.2-1.01-.96-.51-.56.3-.35-.46-2.28-.61-.2,1.72-.35-1.77-1.32-.66-.56.81,1.37,1.67.86.51.66.81,1.72.46.76.35-.81.41-.25,1.52-1.52-.25-.96.66.1.61,1.67.25-.1.41-2.13.3v.81l.61.76-.61,1.06.51,3.19,1.27,1.83-.1-2.79,1.47-1.57s.56,2.08.46,2.43c-.1.35-1.01.1-1.01.1l-.1,1.47,1.62.61-.05.61s1.27,1.67,1.22,1.83c-.05.15-.41,0-.41,0l-1.27-1.47-.41-.56-.3.46-.3-.56h-.66l-1.01.81.05.96,1.77-.1-.15.61-1.83.25.56,1.27h.86l.76.81.91.2.2,1.06-3.55-1.47,1.47,2.43h.76l1.57.86-.56.35-1.57-.61-.86.96-.46.96.96.2.81-.86.71.05-.91.91,1.01.66-.1.41-1.22-.2-.71-.25,1.37,3.35.71.15.86-1.52.2-1.93,1.52-1.32.2.91-1.32.91v.25l2.13,1.12-1.06.56-.2-.61h-1.01c-.2,0-.05,1.72-.05,1.72h-.56l.2,1.06-.86-.46h-2.13v.66l.51,1.37.71,1.17.3-.86.86,1.22.56-.1.2-1.42.61.81.25,1.37-.56.3.25.71.61.81-.3,1.57-.61-1.17-1.12-.51.3,1.47-.51.51.96.41.51,1.37.46-.46.66-.1,1.27,2.94-.3.41-1.62-2.08.46,1.72.86,1.17,1.12.61-.05-1.77-.46-3.04.25-1.22.66-.1,2.18,1.72h.3l1.06.81s.86-.46,1.01-.51c.15-.05-.05-.71-.05-.71l-.91-1.22-.86-.15-1.06-.71-.81.61.3-.81-1.77-.76,1.93-.25.76.76,1.01.66,1.06.2.96,1.12-.05,1.42.15.76h1.47l-.35.91-1.67-.3-.2.56-.51-.61-.1.46,1.06,2.48-.05,2.08-.51.61.41.76-1.93-.46-.61.3v-.41l.66-.41.61-.66.81-.2.25-1.67-.86-.76s-.46-1.32-.56-1.62c-.1-.3-.76-.1-.76-.1l-.46,2.43.46.25.51-1.27.46.41s-.86,1.57-1.06,1.62c-.2.05-.61-.41-.61-.41l-.56.41.3-1.77-.61.51-1.12,1.22-.71-.05-.81-.81-1.01.1.86,1.42-.86,1.22,1.32.76-1.32,1.32v1.88l.81-1.01.81-.1v-1.42l.76,1.32.56-1.12-.1-1.37,1.52.96-.81.35-.76,1.45-.41.78-.05.91-1.52-.41,1.93,1.42-1.42,1.06,1.52.71.2-.46.46.66.96-.71-.15-1.27-.3-.41.2-.61,1.77-1.27-.05-.76-1.06.51.86-1.67.71.2.56-.46.2.71,1.27-.56-1.57,1.57,2.03-.46v-1.42l.61.41.96.15.91.2,1.47.35,1.37.71-.3.61-1.37-.2-1.52-.56-.66.1-1.01,1.12-.91.46.05,1.06-.96-.61-.25-.41-.56.41-.1-1.42-1.12,1.06-1.17.46.46.51.2,1.22v.96l1.01.15-.2,1.17-1.37-.56-1.83.05.05.66,4.82,3.4.76-.1-1.32-1.62.61-.05.76-1.17-.56-.81,1.17.3.76-.41-.46-.61-.86-.25-.1-.71,1.37.71.15-.66,1.06,1.32.61-.3.15-.86,3.75-2.53.25-2.08.56,2.03,1.42.51-.05.46-2.03,2.64-1.67.86-.81.25.35,2.64-1.17,1.17-1.62.3v-.35l1.98-1.17s-.2-2.38-.25-2.53c-.05-.15-.96,0-.96,0l-.05,2.03-1.32.15.46-1.06-.3-.86-1.57.3-.3,1.27.71,1.52,1.98,1.88,1.06-.05.25.76,1.93.76,2.08,1.06h1.01l.71-1.77.51-2.74-.15-1.83.66-1.62.25-1.83-.25-1.32-.3-1.06.91-.51-.15-1.01,1.77-.61.25.61,1.17-.86h.76l2.84-1.67.41.51h.61l1.01-1.22.46-1.72,2.18-.51,2.33,1.22,2.89.56-.91-.96h-.96l-2.13-1.01-1.62-.56-2.03-.51-3.85-1.37h-12.67l.2-1.22-.05-.91-.86-.35-.25-.91h-1.52l.05-1.22-.96-.71,1.17-.46.1-1.57h-.66l-.05-.81h-.61v-1.47l.3-1.47.86-.41-.25-2.23.3-1.62-.96-.81-1.27.1-.25.91-.56-.35-.86.1-.56.66-.81.71-.91-.35-.05-1.98-1.01-2.08-.51-2.03-.71-.86.1-.86-.25-1.83.66-1.12-.61-.86-.35-1.12,1.06-2.69h1.57l.41-.35-.41-.35.35-1.52,1.42-1.72,1.22-.2,1.22-1.01v-3.95l1.88-.61.1-.41-.41-1.12.25-1.22-1.17-1.47v-1.77l1.22-1.57v-1.72l.71-.35,1.01-1.47.66-1.88.51-3.6,1.27-.96-.3-1.77-.35-.96v-1.98l-.91-.76,2.13-1.42-.76-1.22-.25-1.22.25-2.84,2.23-1.06.15-1.17-.56-.56-.66-1.06.1-1.12h-2.13l-.86-.3-.76-.76.15-.46,1.47-.05,3.55.25.51-.35.3-.91.61-.91-.66-1.01-2.03-.56-2.23-.25.05-2.69.96-1.37-.76-.96.46-1.06.66-.76-.81-.61-1.01-.2-.1-1.72,1.06-.66.2-1.06-1.98-.41-.86-1.22-.3-1.98v-1.01l.41-1.06v-.76l.66-1.06-.66-1.01.51-1.06h1.37l1.17-.81-.61-.86-.1-1.06-.1-1.32-.51-.71.05-.86-.66-.76.66-3.3-.25-1.93-.41-1.93.76-.71v-1.77l1.06-.35-.05-.56-1.01-.51v-1.42h1.27l.25-1.98-.81-.41v-2.48h1.62v-1.12l.51-1.27v-3.55l2.03-1.32h1.06l.2-.41.61-.81-.05-.71-.86-.76-.15-3.4-.15-.41-.51-1.52.1-1.06-.86-.35v-.86l1.01-.61v-.51l-1.01-.91v-.86l.66-.61.1-1.12-.76-.76.56-.35v-1.98h.61v-1.72l1.32-.91h1.27v-.86l.91-.96.91-.3.56-3.3-.56-3.5-.91-.76v-.46l.56-.35.71-.25.35-.61.05-1.01.46-1.42-.51-.66v-.61l.91-1.01,1.27-1.17.15-1.17.96-.81.1-1.42-.25-.86.05-1.62.66-2.13-.05-.96-.61-.81-.56.25-.15.56h-.46l.05-.91-.41-1.01.71-1.67h-.96l.05-.35.05-2.64-.76-.61-.61-1.47-.05-1.12.1-.46h.66l.15-.41-.76-.71-.96-.46-.61-1.98-.3-1.01.3-1.27v-.66l.56-.35.66-.76.35-.96v-2.48l.71-.91.76-1.42.46.25.76-.66.51-.61.35-.91-.96-.61.35-2.13-.66-2.23-.1-1.01-.05-1.22,1.52-1.27.3-2.13.3-2.03,1.12-1.52.25-1.01h1.01l-.05-1.17,1.12-.66.1-.51.35-1.77.81-1.83.1-.71.86-.71-.1-1.27h1.22l.91-.76,1.67-.46.05-1.17-.81-.3-.46-1.01-.66-1.52.05-1.42.96-.76.1-2.23-.86-1.88-.1-.71-.05-2.28,1.27-1.06-.15-1.01-1.12-.86.15-1.01,1.32-1.88h1.06l.2-.56.91-.25,4.77-2.28.86-2.79,1.57-4.87-1.57-1.57-.35.15-.96.56h-1.83l-.81-.35-.61-.51v-.86l-.41-1.98v-1.67l-.25-.61-.25-.81-.71-1.52-.41-1.01v-1.17l-.25-1.17-.25-1.52-.61-.86h-.56l-.81-.3-.15-.91.15-.81.3-.81-.81-.41-.96-.46.05-.35.56-.71-.1-.81-.51-.41-.1-.56.66-.2.96-.41.05-1.06-.91-.96,1.17-1.57.46-1.27-1.57-.81-2.13-2.23.25-1.06-.41-.71-.71-1.72v-1.27l-.61-.91.61-.86-.25-.61h-.86l-.81-1.12-1.32-1.52h-.25l-1.52.41-.25,1.01.51.81v1.01l-.46.56-1.27,1.22h-.81l-1.62.25-.05,3.14.25,1.62.3,2.79.76,1.88.15,1.77v2.69l-.1,3.85.81,4.71-.2.86-.76,2.13-.41,2.03-.2,1.57.05,1.72-.41,1.22-.15,2.38-.3.56-.51-.35-.76.1-.05,1.17-.46.81.05,1.57,1.06-.2.61.91-.61,1.12v4.51l-.61,1.42v1.98l.46,1.17.41,2.03.1,1.01-1.06,1.27h-.46l.2.51-.05.61-.51.2v.86l.46,1.17-.41,2.18.46.71-.51.61-.1,1.27-.66,1.98.15,1.47-1.42,1.12.71,3.19-.51.71-.56.2-.15.91-.91,1.67.41,1.72-.46.41.41.25-.05.86-1.06,1.06v1.01l-1.01,1.06-.41.25v.51l.35.86.05,1.62.91.41.35,3.55v1.22l-.71.86v1.42l-.91.25v.86l-.56-.1-.35-.35-.35.76-.1,3.8.46.91-.2.66v2.38l1.01,1.93-.25,2.18.3.56.1,2.28.56,1.57-.05,2.03-.71,1.72-.1,1.32-1.22,1.22.25,1.37-.3.91.51,1.01-.05,1.67-1.27.41-.1.91-1.06,2.23.35,1.57-.3.35-.2,2.23-1.01,2.18-.05,1.62-1.62,1.72-.56,1.42-1.01.96.41,1.93-1.22,1.88-.66,3.6-.46.66-.25.91-1.57,1.01.15.41.96.46-1.22.25.25,1.06.41,1.06-.86.76-1.42.15-1.17-.61-.2.35v1.52l.35,1.06-.81,1.67,1.32,2.99-.05,4.21,1.17,3.4s.15,1.57.15,1.72,1.06,2.18,1.06,2.18l-.91,2.64-.86,1.06.56.81-.1.71-.66-.05-.15-.56-1.37.96.25,1.32-.81,1.72v2.84l-.35.46-.56,1.83.15.76-.35.41v1.22l.81,1.01.1,2.28v.96l.66-.05.2-.61.3.56.91-1.01,1.52-.1-1.06.46-.76.71-.61,1.06.86.35-.61.46-.25-.1-1.32.56-.71-.86h-1.12l.46,1.37.05,1.12-.46,1.27-.61,1.37-.1,1.17.3.81-.05,2.08-.51,1.83-.15,1.32-1.32,1.06-.15.56,1.17.86,3.09.71-.05-1.17,1.37.3-.66-1.12.1-.91h1.52l-.35-.76-.46-.76-.71-.56.05-.61,1.01.46.76.15-.46-1.22-.71-.35-.86-.96v-1.57l.71-.35.1-.41,2.13-.56-.1-.81-.91-.46.1-1.06-.71-1.12.76-.15-.56-.96.86-.35,1.93-.2.51-.46.05-.71.05-.81,1.32-.41,1.88,1.72.91-.15,1.22-1.42.25.2-1.22,1.83-2.18.3-.86,1.67,1.72.91,1.06-.61.35.61-.25.61v1.22l-.41,2.08-.05-.56-.25-.61-.2-1.17-1.32.3-.46.41.96.91.05.61,1.01,1.37-2.08-.76-.1,1.27.71.56-.61.41.81,1.42-.15,1.67-.41-.76-.56.25-.3,1.88-.61.56-.35,1.42.66,1.32.56.25-1.01,1.06.05.76,1.62-.2-1.62.86-.91,1.93-.71,1.27.35-.05,1.06-.66-.81,1.01s1.27.71,1.57.71.25.76.25.76l1.67.81.15-1.17h.56l-.35,1.57-.61,1.01-.1,1.27s-2.79,2.08-2.94,2.08-1.47.1-1.47.1l.25,1.47-1.27,1.27.86.41.71-.35.71.3,1.42.96,1.22.05-.3.71-1.77-.1-.46-.51-.15-.81-.56-.15-1.27,1.62-.35,2.74,1.12-1.42,1.12.81-1.72.86-1.32,2.03-.05,3.14,1.67-2.74.3.3-1.17,2.53.51.41-1.57.25-.25.86.25.81-.86-.15-.56.86-.05.91-.86.81v-1.22l.66-1.37.41-.05v-.71l.51-.71.1-1.12-.96-.86h-.25l-.1,1.67-.71-.05.25-1.06-1.93.61-.56-.3-1.37-1.22.15-.51,1.17,1.06.76.46.96-.2.91-.76.1-1.22-.41-.96-.2-1.01-2.13.05-.05.61-.41.81-.35-.91-.51-.25-.81.05-.41-.51-.61.91-1.57-.46-.25,1.22,1.67.25-.35.61-1.06.05.3.96.86-.35,1.32-1.17-.51,1.32.35.71h-.96l-.1.51-.81-.3-.3.3-1.12,1.22-.81,1.17-.91.81-.61.15-.3,2.33,1.01,1.72,2.53-1.62Z"/>
      <polygon class="cls-1" points="16.5 220.94 15.39 220.94 15.39 222.51 16.7 222.61 15.59 223.12 15.99 224.03 16.91 224.03 19.09 222.46 19.09 221.6 18.23 221.14 19.09 221.14 19.95 220.38 19.19 219.62 18.58 220.13 18.23 219.21 16.91 219.21 16.55 219.92 17.97 220.99 16.6 220.58 16.5 220.94"/>
      <polygon class="cls-1" points="11.64 214.75 12.24 213.23 10.11 213.99 11.64 214.75"/>
      <path class="cls-1" d="m14.17,215.87l-1.42-.71c.05.2,1.22,1.42,1.22,1.42l.2-.71Z"/>
      <polygon class="cls-1" points="10.98 216.88 11.18 218.2 12.24 217.34 10.98 216.88"/>
      <polygon class="cls-1" points="8.29 220.38 10.42 219.21 10.72 218.86 10.11 217.54 9.66 218.96 8.39 219.21 7.53 218.5 7.12 218.56 7.53 219.97 8.29 220.38"/>
      <polygon class="cls-1" points="11.18 221.95 12.24 221.9 10.98 220.99 10.11 221.34 8.44 221.62 9.4 222.38 9.4 222.81 11.18 222.36 11.18 221.95"/>
      <polygon class="cls-1" points="12.75 222.26 13.71 222.26 14.17 220.99 13.46 220.38 12.24 221.19 12.75 222.26"/>
      <polygon class="cls-1" points="7.88 222.51 8.44 223.17 8.92 223.17 8.44 222.51 7.88 222.51"/>
      <polygon class="cls-1" points="3.98 222.81 3.62 224.03 4.44 224.03 3.98 222.81"/>
      <polygon class="cls-1" points="9.23 228.9 8.67 227.91 7.63 227.91 9.23 228.9"/>
      <polygon class="cls-1" points="9.81 227.45 9.19 226.69 8.44 226.69 8.57 227.1 9.43 227.66 9.43 228.4 9.81 227.45"/>
      <polygon class="cls-1" points="12.09 227.55 11.33 227.55 10.72 227.25 10.24 227.25 10.52 228.14 12.72 228.4 12.85 227.91 12.09 227.55"/>
      <path class="cls-1" d="m11.61,226.69l.03.41h.91l.66.45c.13-.17.13-.86.13-.86l-.25-.86-.33-.96h-1.2l-.11.48-1.5.18.3.91,1.37.25Z"/>
      <path class="cls-1" d="m13.94,223.17v-.66s-.79.3-.89.33l.28.48.61-.15Z"/>
      <polygon class="cls-1" points="9.61 231.66 9.94 231.33 9.61 229.94 8.44 229.66 8.14 230.8 8.54 231.66 9.61 231.66"/>
      <polygon class="cls-1" points="8.14 230.49 7.88 229.33 7.63 230.49 8.14 230.49"/>
      <polygon class="cls-1" points="7.48 232.19 7.48 230.77 7.33 230.77 6.82 230.77 6.49 231.38 6.72 232.19 7.48 232.19"/>
      <polygon class="cls-1" points="11.96 230.66 11.86 230.22 12.62 229.66 12.62 228.77 11.43 228.77 11.1 229.33 10.11 229.91 10.72 230.66 11.23 232.04 12.09 231.66 11.96 230.66"/>
      <path class="cls-1" d="m14.17,229.56l-.67-.35-.65.71v1.47l1.32.81s.08-2.56,0-2.64Z"/>
      <polygon class="cls-1" points="11.64 233.94 11.84 232.45 10.8 232.45 11.64 233.94"/>
      <polygon class="cls-1" points="11.96 233.94 12.07 234.68 12.85 233.71 13.33 233.52 13.5 233.28 12.85 233.11 11.96 233.94"/>
      <path class="cls-1" d="m12.85,234.96s.58.1.65.1,0-.99,0-.99l-.77.49.12.39Z"/>
      <polygon class="cls-1" points="13.53 236.07 13.5 235.72 12.32 235.06 11.96 235.26 11.96 235.87 13.13 236.86 13.53 236.07"/>
      <polygon class="cls-1" points="8.42 251.03 7.63 250.37 6.87 250.67 6.82 251.56 6.46 251.79 6.62 252.83 7.25 253.38 7.76 252.95 8.67 252.62 8.8 252.95 9.4 252.95 8.62 252.22 7.71 252.22 7.66 251.88 8.31 251.58 8.42 251.03"/>
      <polygon class="cls-1" points="8.14 254.45 9.4 254.83 9.81 254.58 11.48 254.58 11.89 254.83 12.52 254.37 12.52 253.94 11.05 253.94 9.56 253.38 9.56 253.92 8.14 253.99 8.14 254.45"/>
      <polygon class="cls-1" points="4.74 254.6 5.63 254.83 5.88 253.18 4.74 254.6"/>
      <path class="cls-1" d="m3.7,254.25l-.81.35v.51s.61.08.71.1c.1.03,0,.53,0,.53l.58.08,1.13.66.77-.25v-.58l-1.5-.43-.89-.96Z"/>
      <polygon class="cls-1" points="7.38 256.58 7.58 258.45 7.73 258.56 8.52 257.9 7.38 256.58"/>
      <path class="cls-1" d="m0,262.61l.23.61,1.42-.81s.74-1.29.84-1.34c.1-.05.66,1.04.66,1.04l.68-1.37-.28-.33v-.84l-1.34-2.41-.15-1.57-.43-.41-.46.68-.79.1.05,1.27.46.46-.46.86h.63l.41-.81.3.46-.1.56-.99.33.03.32.48-.11,1.01-.28s.25.71.25.84-.43.33-.43.33l-.51-.28-1.52.3v1.19h.63l.58-.53.35.1-.35.74-1.22.91Z"/>
      <polygon class="cls-1" points="5.42 258.94 5.42 257.41 4.89 256.7 4.23 256.58 3.95 256.48 2.74 256.07 2.74 256.81 3.93 258.88 4.39 258.88 4.21 259.77 5.42 258.94"/>
      <polygon class="cls-1" points="9.02 258.2 8.26 258.96 9.78 259.92 9.02 258.2"/>
      <path class="cls-1" d="m10.11,258.88l-.33.18c.1.1.89,1.17.89,1.17l.33-.74-.89-.61Z"/>
      <polygon class="cls-1" points="6.89 262.15 7.83 262.15 7.93 260.79 7.2 260.41 7.12 259.92 6.64 259.92 6.62 259.48 6.87 259.32 6.89 258.38 6.26 256.81 6.08 257.82 6.08 259.06 6.26 259.67 5.98 260.23 5.58 259.34 4.87 259.77 4.61 260.68 5.31 261.37 6.08 261.14 6.89 262.15"/>
      <polygon class="cls-1" points="3.07 263.22 3.83 263.47 4.08 261.65 3.07 262.84 3.07 263.22"/>
      <polygon class="cls-1" points="4.61 262.94 5.42 262.03 4.74 261.65 4.61 262.94"/>
      <path class="cls-1" d="m1.91,272.75v1.39l.67.41.25-.33.33.48.13-.38-.56-1.27.13-.08.84,1.34.58.15.2.56v-.68l.35-.3.18-.81.3-.13.1.61.3-.63.43-.25.41.3-.84.76.03.3.76-.13.03.53-1.12.08-.1.94.23.71,1.42.28.43-.35.68-.23-.28-1.39h.84l-.7-.99-.42-.58.99.23v-.48l-.58-.66.03-.66-.3-.38v-.46h.48l.13-3.6-.33-.84-.15-1.12v-1.09l-.13-1.32-.68.79.08.38-.23-.08.03-1.12-.79-.51-.1.53-.53.25-.41.79s-.74-.13-.81-.13-.13.3-.13.3h1.14l-.03.33.03.53.46.08.1.63-.15.2.08.48.08,1.09-.2,1.32-.56.13-.94-.71v.58l-.66-.05.15.58-.35-.23-.48-.74-.33-.05.03.38.48,1.18h-.51l-.49-1.36h-.39l-.25,2.05.65.41.67.23.63-.13.05.43-.53.48v.38l-.58-.03-.13-.38-1.17.13-.63.53.28.61.25,1.12.81-1.19.34-.18Z"/>
      <path class="cls-1" d="m1.04,265.86s.3-.33.46-.41.42.2.42.2l-.39.53-1.29.46v1.04l.46.33.53-.23v-.68l.99-.1.53.33.33-.33.51.3.25-.3h.25l.35.71.71.3v-2.03l-1.06.05-.51-.29-.61.11v-.74l.61-.28v-.71l-1.12-.66-.08.91-.61.23-.41-.76h-.66l-.71.81.68.56.35.63Z"/>
      <polygon class="cls-1" points="9.35 270.8 8.64 269.96 8.64 271.99 9.35 271.38 9.35 270.8"/>
      <path class="cls-1" d="m3.07,280.91l.43-1.14.68-.35,1.24.08,1.22.08.03.38-.81.48.23,1.04,1.62-1.39.3-.23.63.33.35-.53.84-.86-.6-1.17-.9-1.14-1.04.3.84.18-.38.63-.66-.25-.63.61.56.76-.13.23-.43.15-1.01-.15v-.84l-.2-.03-.2-.81-.89.18-.56-.25v-.51l-.58-.08-.15.18-.94-1.04-.53-.15.46,1.01.05.38,1.7.9h.23l-.43.82s-.1.25-.18.28c-.08.03-1.12-.3-1.12-.3l.46-.8h-.58l-.71.87,1.27.74-.15,1.42h.68Z"/>
      <path class="cls-1" d="m2.59,284.16l-.43-.23.41-.18.2-.41-.34-.15-.14-1.09.41.05.08.41.33-.13c.1-.1.74-1.17.74-1.17l-1.7.2-.41-.61-.2.89.53.68-.53.28-.25.28h-.25v.56h.58l-.33.48.76.86.56-.23v-.51Z"/>
      <path class="cls-1" d="m9.84,285.15h.18v-.79l-.66-.94s-.48-1.19-.48-1.29-.23-1.01-.23-1.01l-1.12-.25-.48.3v.51l1.32-.08.13.43h-.33l-.08.46-.56.39v.72l.76-.03.48,1.57h.38l.08-.68s.41-.08.48-.08.13.76.13.76Z"/>
      <path class="cls-1" d="m3.83,284.31l.61.84v-1.29l.35.13.25.91.13.58.81.28h.63l.18-.61s-.53-.58-.61-.66,0-.96,0-.96l-1.95-.41-.41.66v.53Z"/>
      <polygon class="cls-1" points="16.45 294.6 16.19 294.04 15.92 294.27 16.45 299.09 17.03 299.09 17.16 297.36 18.4 296.57 18.4 295.94 17.57 294.85 16.45 294.6"/>
      <polygon class="cls-1" points="17.39 297.59 17.39 299.01 17.57 298.91 18.61 297.06 18.09 297.06 17.39 297.59"/>
      <polygon class="cls-1" points="8.39 288.47 7.93 287.78 8.39 287.3 8.53 285.53 7.48 284.21 7.05 284.21 7.05 286.21 6.13 286.34 5.17 286.01 4.74 286.62 5.55 287.15 6.11 287.96 7.05 287.68 7.48 288.47 7.66 289 8.39 289.18 8.39 288.47"/>
      <polygon class="cls-1" points="5.55 288.29 4.99 287.93 4.26 288.26 4.26 288.8 4.74 288.95 5.55 288.29"/>
      <polygon class="cls-1" points="6.64 291.48 6.24 290.82 6.41 290.34 6.64 290.34 7.16 291.36 7.05 290.06 7.28 289.33 7.05 289.18 5.73 289.53 5.86 289.96 4.9 290.27 4.74 290.76 5.17 290.98 4.44 291.56 4.54 292.19 5.65 291.61 6.64 291.48"/>
      <path class="cls-1" d="m3.47,292.37l.35-.43v-.76l.61.03v-.2l-.35-.51h-.25l-.41-.23-.1.18-.28.91v.84s-.68.63-.76.71c-.08.08,0,.91,0,.91l1.19-.23v-1.22Z"/>
      <path class="cls-1" d="m9.3,290.27l-.13,1.22h.84c.13,0,0-1.22,0-1.22h-.71Z"/>
      <path class="cls-1" d="m11.38,291.28c.05-.08.23-1.27.23-1.27,0,0-.33-.48-.41-.48s-.71.13-.71.13l.28,1.83s.56-.13.61-.2Z"/>
      <polygon class="cls-1" points="12.04 290.01 12.04 291.15 12.85 290.87 12.65 290.01 12.04 290.01"/>
      <polygon class="cls-1" points="3.78 295.34 3.78 297.06 4.56 295.87 4.56 294.4 4.17 294.4 3.78 295.34"/>
      <path class="cls-1" d="m5.86,294.8l-.3-.18-.47.91.27.43-.27.98-.34-.52-.18.76s-.48.79-.39.85c.09.06.39,1.05.39,1.05l.53-.3.91-2.84-.15-1.14Z"/>
      <polygon class="cls-1" points="5.68 297.77 5.68 298.56 5.3 299.09 5.3 299.52 6.01 299.09 6.01 298.45 6.82 297.93 6.82 297.06 6.82 296.35 6.31 296.35 5.86 297.29 5.68 297.77"/>
      <polygon class="cls-1" points="7.45 298.5 7.81 297.93 7.53 297.44 7.07 298.18 6.49 298.5 6.64 298.81 7.45 298.5"/>
      <path class="cls-1" d="m10.9,298.12v.35l2.41,2.15-.3-1.34-1.39-1.25-.41-.6-3.24-2.66-.15.13s.1.76.15.82c.05.06,2.94,2.4,2.94,2.4Z"/>
      <path class="cls-1" d="m9.62,295.01l.87.13.16.17.4.43h.56s.35-.25,0-.36c-.35-.11-.81-.59-.81-.59l.46-.38-.2-.35h-.23l-.13-.96h-.3l-.03.61s-.37-.05-.3.13c.07.18.17.58.17.58l-.62.1v.51Z"/>
      <polygon class="cls-1" points="12.85 295.41 11.86 294.63 12.22 295.73 12.85 295.41"/>
      <polygon class="cls-1" points="11.28 296.7 11.77 297.06 12.36 298.04 13.16 298.04 12.98 296.57 12.36 296.57 12.04 296.15 11.28 296.15 11.28 296.7"/>
      <path class="cls-1" d="m11.61,300.74l-1.54-1.72-.28.08s2.36,2.36,2.43,2.41c.08.05.14.99.14.99h.34l.15-.33-.23-.25-.27-1.17h-.75Z"/>
      <path class="cls-1" d="m10.37,301.95h1.24l-1.83-2.31-.16-.13s-.98-.08-.93,0c.05.08.1.3.1.3h.63l.79.93.05.34-.84.1.94.76Z"/>
      <path class="cls-1" d="m6.82,302.33c.18.05.1-1.58.1-1.58l-1.62-.11s1.34,1.65,1.52,1.7Z"/>
      <path class="cls-1" d="m3.34,300.63s-.12.94-.12,1.01.94.69.94.69l.75-.25s-1-1.17-1.13-1.33l-.44-.11Z"/>
      <path class="cls-1" d="m13.61,303.95l.15-.43-.61-.58-.68.2h-.61l-.1.38-.92,1.06v.3l.92-.15-.28.46.74-.25v.38l-.74.53.38.28,1.23-1.17-.52-.38v-.43s.96-.2,1.04-.2Z"/>
      <path class="cls-1" d="m12.07,309.4l-1.55-.28-1.06.15-.16-.59-.76-.12-.03-.58-1.58-1.62h-.6l-.22.33.93.84h.2l.08.35h-.28l.25.63.53.33.2.41.66.38.23,1.14.41-.05.46-.86.89.64s.28-.16,1.09-.46c.81-.3.68.84.71.96.03.13,0-.96,0-.96l.15-.3-.56-.33Z"/>
      <polygon class="cls-1" points="22.46 322.03 22.26 321.47 22.46 320.96 22.1 320.61 21.93 320 22.33 320 22.28 319.54 22.18 319.01 22.41 318.88 23.24 319.59 23.62 319.65 23.78 318.61 23.42 317.92 23.04 317.54 22.13 317.59 21.9 316.3 20.81 315.51 20.38 315.49 20.56 316.86 19.92 316.86 19.9 315.46 19.44 315.46 18.76 317.09 18.66 315.72 19.11 315.13 19.14 314.73 18.48 314.75 18.31 314.2 16.55 312.88 16.17 312.42 15.46 312.29 15.36 311.56 14.98 310.85 14.6 311.99 14.27 311.94 14.2 310.85 13.76 310.29 13.76 310.44 12.85 310.01 12.98 311.01 13.59 311.58 13.59 312.55 14.63 312.83 15.21 312.83 16.93 313.82 16.83 314.8 15.41 314.63 15.36 315.03 16.1 315.84 16.05 316.48 15.56 316.48 15.08 316.05 14.12 316.05 14.27 317.77 16.17 318.05 16.07 319.11 16.53 319.67 15.87 320.2 15.87 320.56 16.93 320.99 17.08 321.34 17.47 321.34 17.24 319.32 18.63 319.19 19.19 318.58 19.52 319.21 20.23 319.32 19.85 319.77 19.11 320 19.16 320.51 19.7 320.94 19.54 321.34 18.73 321.5 18.53 321.85 17.21 321.85 15.69 320.96 15.21 321.14 14.8 322 15.31 322.79 17.39 323.35 18.71 322.86 20 322.89 20.58 322.92 20.58 322.26 21.17 321.98 21.17 320.84 21.7 320.86 21.9 321.7 22.05 322.28 22.46 322.41 22.36 322.89 21.72 323.19 21.6 323.57 22.46 323.7 22.94 323.57 23.24 322.76 22.76 322.28 22.46 322.03"/>
      <path class="cls-1" d="m35.36,322.79h.81l.38-.76s-1.47-.15-1.55-.15l.35.91Z"/>
      <path class="cls-1" d="m26.89,323.98l.76.13.63.18s-.18.84,0,.89c.18.05.86,0,.86,0l-.13-.74.91-.1.15,1.24s.89-.03.96,0,.71-1.17.71-1.17l.84-.1.57-.06-.17-.67-.63-.61h-.29l-.04.31-.51-.11.11-.67h-.46l-.46.57-.4-.02-.04-.59-.99-.23.44-.35.1-.61-.78-1.06-.7-.2-.68,1.18.11,2.05h-.21l-.15-.91-.78-.71-.17-.67s.68-.08.74-.13c.06-.06-.21-1.18-.21-1.18h-.86l-.46-.34h-.49l-.23.49.21.1s-.02.3-.08.32c-.06.02-.63.55-.63.55l-.46.15-.25-.84-.71-.02v.29l.2.38.23,1.44.63,1.06,1.62.74h1.14Z"/>
      <path class="cls-1" d="m39.33,330.94l.61-.3.34-1.1.53,1.18.46-.99v1.03l.84.49,3.46,1.03.27-.8,1.25.8.3-.84h1.14l-.3-25.67-1.14-1.23-.46.62-.49.38-.72.23-1.06.19-.53-.34-.34-.68-.27-.76-.34-.53h-.38l-.61.23-.49.34-.04.53-.08.76-.15.42-.42.53-.57.46-.61.38-.87.08-.34-.38-.99-.57-.15.19-1.38.11-.22.84.76.57.61.53,1.03-.11.3.3-.99,1.17h-.95v-.6l-.8.08.53,1.94-1.05,1.06.77.57v.95l.54.15.84.76,1.14-.53.95-.95,2.43-.38,1.48.46.04,1.48-.46.42-1.25.46-1.48,1.18-1.56.61-1.41,1.03.34,1.06s.8,1.56.8,1.86v.82l2.93,1.88.91-.04.72.65,2.85,1.44-.46.53-.76-.04-.11.65-.76.34v1.25l-.76.11s0-.84.04-1.03c.04-.19.95-1.67.95-1.67l-1.86-1.25s-.08,1.06-.19,1.06-.95-1.48-.95-1.48l-1.18-.38-.42,1.1-.84-1.67-1.03,1.03.42,1.06-1.37-.76-.3-1.1.15-.87-.87-.15-.29.6-.47-1.09-.34-1.67-.12-.67.91,1s.86.38.94.35c.08-.03.41-.48.41-.48l-.99-2.61s-.18-2.15-.18-2.36l-1.62,1.62-.25.53.84.57-.09,1.14-.06-.35-.68-.38-.65.19-.04,1.03v1.81l1.29,1.37-.34.74,1.03.49.99,1.37s1.33.53,1.48.61c.15.08-.23.53-.23.53l-2.17-1.18-.53.53-.08,1.29-.76-.27.95-2.43-.95-.04-.42-.49-.72.3-.34,1.33h-.34l-.23.19-.91.04.3.61-1.06-.3-.99-.87-1.14-.04.19,1.06.5.57-.96-.38-.65-1.1-.34.11-.19,1.14-.91-.46-.53.38,1.14,1.06,2.74-.19.3.53.61-.46.61-.72.87.72-.42.61.65.19,1.29-.72-.49,1.48,1.33-.57-.19.8.99-.27,1.29-1.18.34.04-.27.87-2.36,1.29.3.27.72-.46,2.32-.11.42-.65-.19,1.14,2.02-.27.42-1.1.34,1.18Z"/>
      <path class="cls-1" d="m35.89,332.04c-.18-.03-1.37.51-1.37.51l-2.1-.28-.86,1.17.1.46h1.95s.15.46.23.46.66-.71.66-.71l.61.18-.2.91.2.81.68-.35s.91-.86.89-.94c-.03-.08-1.29-.81-1.29-.81,0,0,.68-1.37.51-1.39Z"/>
      <path class="cls-1" d="m44.11,336.38l.03-.68.49.3s.34-.3.34-.46,1.12.66,1.12.66l.58-1.09-.46-.35-1.01-.96h1.32l1.37,1.32,1.5-.61s.79-.94.79-1.06-.96-.96-.96-.96c0,0-2.76.58-2.84.58h-1.39l-1.95.41-3.93.58-.3.43.3.35,1.14,1.13s1.95-.49,2.05-.42c.1.08-.53.89-.58.96-.05.08-1.01,0-1.01,0l.03.41.96.25.1.41.99.28.84,1.06,1.62.53-.03-.71-.79-.28.1-.33-.94-1.37-.63-.15.03-.23h1.14Z"/>
      <path class="cls-1" d="m52.47,339.09l-.2-.84h-1.32l-.41-1.06h-2.02v-.3l-.47-.51.03-.42s1.24.72,1.41.72,1.89-.38,1.89-.38l-1.01-.89s-2.51.05-2.76,0l-.99,2.05.79.03-.15.48-.63.13v.51l.84.56.33-.05.1-.76h.23l.2.25h.51l.05-.58.46.13.1.66.84.13.35-.33.18.84.2.68.3.2s.61.05.68.05.18,1.42.18,1.42l.48-.38v-1.47l-.66-.51.48-.35Z"/>
      <polygon class="cls-1" points="54.93 338.91 54.7 340.53 55.46 339.95 55.34 338.91 54.93 338.91"/>
      <path class="cls-1" d="m53.89,343.7s1.44.13,1.57.1c.13-.03.51-.79.51-.79l-2.18-.25.1.94Z"/>
      <path class="cls-1" d="m56.68,343.07l1.32,1.01s.51-.35.43-.38c-.08-.03-.83-.63-.87-.63h-.88Z"/>
      <path class="cls-1" d="m57.72,341.88l-.68-.23.1-1.65-.46-.1.18,1.32h-.38l-.38-.28-.28.05s.03.86.15.96c.13.1,1.93.81,1.93.81l-.18-.89Z"/>
      <path class="cls-1" d="m59.8,335.56l-.84-.15-.03-.28s.33-.56.3-.66-.61-1.37-.61-1.37l.68.33.15.56,1.22.18s.13-.3-.03-.41c-.15-.1-1.77-1.06-1.77-1.06,0,0-1.12-.58-1.19-.58s-2.15.35-2.23.35-2.03-.2-2.03-.2l-1.9-.15-.68.15h-.68s.3.41.34.56c.04.15.87.48.87.48l.58,2.1.53.55.76-.11s-.13-.74,0-.74,1.04.1,1.04.1l.58.75h-1.09l1.09.67h1.22l-.46-1.09.33-.38.89.25-.18,1.01,1.06.51.48-.46-.2-.52,1.04-.16s-.03,1.22.18,1.24c.2.03,1.44.08,1.47,0,.03-.08.18-.91.18-.91l-1.09-.56Z"/>
    </g>
  </g>
</svg>