<?xml version="1.0" encoding="UTF-8"?>
<svg id="Capa_2" data-name="Capa 2" xmlns="http://www.w3.org/2000/svg" viewBox="0 0 11.22 11.22">
  <defs>
    <style>
      .cls-1 {
        fill: #999;
      }
    </style>
  </defs>
  <g id="Objects">
    <path class="cls-1" d="m3.47,2.93c0-.31.09-.53.27-.71.65-.65,1.29-1.3,1.94-1.94.35-.35.89-.37,1.27-.07.38.31.46.83.21,1.25-.03.06-.03.09.02.13.82.82,1.63,1.63,2.45,2.45.05.05.08.05.14.02.41-.25.94-.17,1.24.2.31.38.29.92-.05,1.27-.65.66-1.3,1.31-1.96,1.96-.35.34-.89.36-1.27.05-.36-.29-.45-.82-.2-1.23.04-.07.04-.1-.02-.16-.17-.16-.34-.33-.5-.5-.05-.05-.08-.05-.13,0-1.48,1.58-2.97,3.15-4.46,4.72-.19.2-.37.4-.56.59-.31.33-.73.34-1.05.02-.19-.19-.39-.38-.58-.58-.31-.32-.31-.73.02-1.03,1.28-1.22,2.57-2.43,3.86-3.64.49-.46.98-.92,1.47-1.38.05-.05.06-.08,0-.13-.18-.17-.35-.34-.52-.51-.05-.05-.08-.05-.13-.01-.32.19-.65.21-.97.02-.32-.18-.47-.46-.48-.78Zm.44,5.18c.88-.93,1.76-1.87,2.64-2.8.05-.05.05-.08,0-.13-.17-.17-.35-.34-.51-.52-.06-.07-.1-.07-.17,0-1.37,1.3-2.75,2.59-4.12,3.89-.4.38-.8.76-1.2,1.13-.12.11-.13.25-.03.35.21.21.42.42.63.63.05.05.1.07.18.07.08,0,.14-.05.2-.11m7.81-6.23s-.03-.03-.04-.05c-.82-.82-1.63-1.63-2.45-2.45-.05-.05-.07-.04-.12,0-.45.45-.9.91-1.36,1.36-.04.04-.05.06,0,.11.82.82,1.64,1.64,2.46,2.46.04.04.07.04.11,0,.45-.46.91-.91,1.36-1.37.02-.02.04-.03.04-.06Zm.92-.04c-.15,0-.27.06-.37.16-.38.38-.76.76-1.14,1.14-.26.26-.52.51-.77.77-.25.25-.17.65.14.8.19.09.41.05.57-.11.36-.36.72-.72,1.08-1.08.28-.28.56-.56.84-.84.15-.16.18-.34.11-.55-.07-.19-.25-.3-.46-.3ZM6.85.95c0-.2-.11-.38-.29-.45-.19-.08-.4-.05-.55.1-.65.64-1.29,1.29-1.93,1.93-.2.2-.19.52,0,.71.19.19.5.19.7,0,.65-.64,1.29-1.29,1.93-1.93.09-.09.14-.21.14-.35Z"/>
  </g>
</svg>