<?xml version="1.0" encoding="UTF-8"?>
<svg id="Capa_2" data-name="Capa 2" xmlns="http://www.w3.org/2000/svg" viewBox="0 0 97.86 97.86">
  <defs>
    <style>
      .cls-1, .cls-2 {
        fill: #fff;
      }

      .cls-2 {
        opacity: .3;
      }
    </style>
  </defs>
  <g id="Objects">
    <g>
      <path class="cls-2" d="m48.93,0C21.91,0,0,21.91,0,48.93s21.91,48.93,48.93,48.93,48.93-21.91,48.93-48.93S75.95,0,48.93,0Zm0,90.25c-22.82,0-41.32-18.5-41.32-41.32S26.11,7.61,48.93,7.61s41.32,18.5,41.32,41.32-18.5,41.32-41.32,41.32Z"/>
      <path class="cls-1" d="m90.61,74.56c4.6-7.47,7.26-16.27,7.24-25.69C97.82,21.89,75.9,0,48.93,0,21.91,0,0,21.91,0,48.93c0,16.65,8.32,31.36,21.02,40.19,1.84,1.28,4.37.73,5.49-1.21h0c1-1.73.48-3.91-1.15-5.05-10.66-7.41-17.66-19.71-17.75-33.66-.14-22.41,17.92-41.05,40.32-41.58,23.28-.55,42.32,18.16,42.32,41.31,0,7.95-2.25,15.38-6.14,21.68-1.03,1.67-.6,3.86.98,5.03h0c1.8,1.33,4.35.82,5.52-1.09Z"/>
    </g>
  </g>
</svg>