<?xml version="1.0" encoding="UTF-8"?>
<svg id="Capa_2" data-name="Capa 2" xmlns="http://www.w3.org/2000/svg" viewBox="0 0 10.65 3.28">
  <defs>
    <style>
      .cls-1 {
        fill: #999;
        stroke: #fff;
        stroke-miterlimit: 10;
        stroke-width: .5px;
      }
    </style>
  </defs>
  <g id="Objects">
    <g>
      <path class="cls-1" d="m3.03,1.64c0-.77-.62-1.39-1.39-1.39S.25.87.25,1.64s.62,1.39,1.39,1.39,1.39-.62,1.39-1.39Z"/>
      <path class="cls-1" d="m6.72,1.64c0-.77-.62-1.39-1.39-1.39s-1.39.62-1.39,1.39.62,1.39,1.39,1.39,1.39-.62,1.39-1.39Z"/>
      <path class="cls-1" d="m10.4,1.64c0-.77-.62-1.39-1.39-1.39s-1.39.62-1.39,1.39.62,1.39,1.39,1.39,1.39-.62,1.39-1.39Z"/>
    </g>
  </g>
</svg>