<?xml version="1.0" encoding="UTF-8"?>
<svg id="Capa_2" data-name="Capa 2" xmlns="http://www.w3.org/2000/svg" xmlns:xlink="http://www.w3.org/1999/xlink" viewBox="0 0 69.94 69.94">
  <defs>
    <style>
      .cls-1 {
        fill: #f0f3f4;
      }

      .cls-2 {
        fill: url(#Degradado_sin_nombre_5);
      }
    </style>
    <linearGradient id="Degradado_sin_nombre_5" data-name="Degradado sin nombre 5" x1="0" y1="32.09" x2="69.94" y2="32.09" gradientUnits="userSpaceOnUse">
      <stop offset="0" stop-color="#90d077"/>
      <stop offset="1" stop-color="#5aa442"/>
    </linearGradient>
  </defs>
  <g id="Objects">
    <g>
      <path class="cls-1" d="m34.97,0C15.66,0,0,15.66,0,34.97s15.66,34.97,34.97,34.97,34.97-15.66,34.97-34.97S54.28,0,34.97,0Zm0,64.5c-16.31,0-29.53-13.22-29.53-29.53S18.66,5.44,34.97,5.44s29.53,13.22,29.53,29.53-13.22,29.53-29.53,29.53Z"/>
      <path class="cls-2" d="m64.76,53.29c3.29-5.34,5.19-11.63,5.18-18.36C69.92,15.65,54.25,0,34.97,0,15.66,0,0,15.66,0,34.97c0,11.9,5.94,22.41,15.02,28.73,1.31.91,3.12.52,3.92-.87h0c.71-1.24.34-2.8-.83-3.61-7.62-5.3-12.62-14.09-12.69-24.06-.1-16.02,12.8-29.34,28.82-29.72,16.64-.39,30.25,12.98,30.25,29.53,0,5.68-1.61,10.99-4.39,15.5-.74,1.2-.43,2.76.7,3.6h0c1.29.95,3.11.59,3.95-.78Z"/>
    </g>
  </g>
</svg>