<?xml version="1.0" encoding="UTF-8"?>
<svg id="Capa_2" data-name="Capa 2" xmlns="http://www.w3.org/2000/svg" viewBox="0 0 9.51 13.65">
  <defs>
    <style>
      .cls-1 {
        fill: #999;
      }
    </style>
  </defs>
  <g id="Objects">
    <path class="cls-1" d="m9.47,4.1C9.16,1.76,7.12,0,4.71,0c-.22,0-.49.02-.75.07C.59.67-1,4.38.66,7.17c1.01,1.69,2.06,3.35,3.12,5.01.3.47.61.94.9,1.41.05.09.08.09.14,0,.06-.11.14-.21.2-.32,1.27-1.98,2.54-3.95,3.75-5.97.6-1,.84-2.05.69-3.2Zm-4.71,3.03c-1.29,0-2.36-1.06-2.36-2.36,0-1.31,1.05-2.37,2.37-2.37,1.3,0,2.36,1.05,2.36,2.34,0,1.32-1.05,2.38-2.37,2.38Z"/>
  </g>
</svg>